<?xml version="1.0" encoding="UTF-8"?> <svg xmlns="http://www.w3.org/2000/svg" width="153" height="33" viewBox="0 0 153 33" fill="none"> <path d="M18.423 14.485C18.423 9.39761 14.2989 5.27347 9.21152 5.27347C4.12414 5.27347 8.01186e-07 9.39761 5.78806e-07 14.485L0 27.7265C4.76942 27.7265 8.6358 23.8601 8.6358 19.0907V13.9093C9.27173 13.9093 9.78724 14.4248 9.78724 15.0607V19.0907C9.78724 23.8601 13.6536 27.7265 18.423 27.7265V14.485Z" fill="#5F0922"></path> <path d="M17.5 30C22.1944 30 26 26.1944 26 21.5C26 16.8056 22.1944 13 17.5 13C12.8056 13 9 16.8056 9 21.5C9 26.1944 12.8056 30 17.5 30Z" fill="white"></path> <path fill-rule="evenodd" clip-rule="evenodd" d="M27.6667 6H47C47 9.62438 44.0152 12.5625 40.3333 12.5625H30.3333C29.597 12.5625 29 13.1501 29 13.875H40.3333C44.0152 13.875 47 16.8131 47 20.4375C47 24.0619 44.0152 27 40.3333 27H21V12.5625C21 8.93812 23.9848 6 27.6667 6ZM30.3333 19.125H41.6667C41.6667 19.8499 41.0697 20.4375 40.3333 20.4375H29C29 19.7126 29.597 19.125 30.3333 19.125Z" fill="#5F0922"></path> <path d="M67.7203 17C67.0056 15.7307 66.2323 14.4773 65.4003 13.24C64.5683 12.0027 63.683 10.8347 62.7443 9.736V17H60.2803V5.912H62.3123C62.6643 6.264 63.0536 6.696 63.4803 7.208C63.907 7.72 64.339 8.26933 64.7763 8.856C65.2243 9.432 65.667 10.0347 66.1043 10.664C66.5416 11.2827 66.9523 11.88 67.3363 12.456V5.912H69.8163V17H67.7203ZM71.8141 12.856C71.8141 12.1093 71.9261 11.4587 72.15 10.904C72.3847 10.3387 72.6887 9.86933 73.0621 9.496C73.4354 9.12267 73.8621 8.84 74.3421 8.648C74.8327 8.456 75.3341 8.36 75.8461 8.36C77.0407 8.36 77.9847 8.728 78.6781 9.464C79.3714 10.1893 79.7181 11.2613 79.7181 12.68C79.7181 12.8187 79.7127 12.9733 79.7021 13.144C79.6914 13.304 79.6807 13.448 79.6701 13.576H74.2621C74.3154 14.0667 74.5447 14.456 74.9501 14.744C75.3554 15.032 75.8994 15.176 76.5821 15.176C77.0194 15.176 77.4461 15.1387 77.8621 15.064C78.2887 14.9787 78.6354 14.8773 78.9021 14.76L79.2221 16.696C79.0941 16.76 78.9234 16.824 78.7101 16.888C78.4967 16.952 78.2567 17.0053 77.9901 17.048C77.7341 17.1013 77.4567 17.144 77.1581 17.176C76.8594 17.208 76.5607 17.224 76.2621 17.224C75.5047 17.224 74.8434 17.112 74.2781 16.888C73.7234 16.664 73.2594 16.36 72.8861 15.976C72.5234 15.5813 72.2514 15.1173 72.0701 14.584C71.8994 14.0507 71.8141 13.4747 71.8141 12.856ZM77.4141 11.944C77.4034 11.7413 77.3661 11.544 77.3021 11.352C77.2487 11.16 77.1581 10.9893 77.0301 10.84C76.9127 10.6907 76.7581 10.568 76.5661 10.472C76.3847 10.376 76.1554 10.328 75.8781 10.328C75.6114 10.328 75.3821 10.376 75.1901 10.472C74.9981 10.5573 74.8381 10.6747 74.7101 10.824C74.5821 10.9733 74.4807 11.1493 74.4061 11.352C74.3421 11.544 74.2941 11.7413 74.2621 11.944H77.4141ZM86.6778 12.168C86.4645 12.9787 86.2351 13.784 85.9898 14.584C85.7551 15.384 85.5045 16.1893 85.2378 17H83.3818C83.1898 16.552 82.9818 16.0187 82.7578 15.4C82.5338 14.7813 82.2991 14.1093 82.0538 13.384C81.8191 12.648 81.5738 11.8747 81.3178 11.064C81.0725 10.2427 80.8325 9.416 80.5978 8.584H83.1098C83.1951 8.968 83.2858 9.38933 83.3818 9.848C83.4885 10.296 83.5951 10.76 83.7018 11.24C83.8191 11.72 83.9365 12.2053 84.0538 12.696C84.1818 13.176 84.3098 13.64 84.4378 14.088C84.5765 13.6187 84.7098 13.1387 84.8378 12.648C84.9765 12.1573 85.1045 11.6773 85.2218 11.208C85.3498 10.728 85.4671 10.2693 85.5738 9.832C85.6911 9.384 85.7925 8.968 85.8778 8.584H87.6058C87.6911 8.968 87.7871 9.384 87.8938 9.832C88.0005 10.2693 88.1125 10.728 88.2298 11.208C88.3471 11.6773 88.4698 12.1573 88.5978 12.648C88.7258 13.1387 88.8591 13.6187 88.9978 14.088C89.1258 13.64 89.2538 13.176 89.3818 12.696C89.5098 12.2053 89.6271 11.72 89.7338 11.24C89.8511 10.76 89.9578 10.296 90.0538 9.848C90.1605 9.38933 90.2565 8.968 90.3418 8.584H92.8218C92.5871 9.416 92.3418 10.2427 92.0858 11.064C91.8405 11.8747 91.5951 12.648 91.3498 13.384C91.1151 14.1093 90.8805 14.7813 90.6458 15.4C90.4218 16.0187 90.2138 16.552 90.0218 17H88.1658C87.8991 16.1893 87.6378 15.384 87.3818 14.584C87.1258 13.784 86.8911 12.9787 86.6778 12.168ZM98.1084 17V5.912H105.532V8.008H100.604V10.328H104.988V12.424H100.604V17H98.1084ZM109.52 17H107.136V8.584H109.52V17ZM109.744 6.152C109.744 6.58933 109.6 6.936 109.312 7.192C109.034 7.43733 108.704 7.56 108.32 7.56C107.936 7.56 107.6 7.43733 107.312 7.192C107.034 6.936 106.896 6.58933 106.896 6.152C106.896 5.71467 107.034 5.37333 107.312 5.128C107.6 4.872 107.936 4.744 108.32 4.744C108.704 4.744 109.034 4.872 109.312 5.128C109.6 5.37333 109.744 5.71467 109.744 6.152ZM111.681 6.488L114.065 6.104V8.584H116.929V10.568H114.065V13.528C114.065 14.0293 114.15 14.4293 114.321 14.728C114.502 15.0267 114.859 15.176 115.393 15.176C115.649 15.176 115.91 15.1547 116.177 15.112C116.454 15.0587 116.705 14.9893 116.929 14.904L117.265 16.76C116.977 16.8773 116.657 16.9787 116.305 17.064C115.953 17.1493 115.521 17.192 115.009 17.192C114.358 17.192 113.819 17.1067 113.393 16.936C112.966 16.7547 112.625 16.5093 112.369 16.2C112.113 15.88 111.931 15.496 111.825 15.048C111.729 14.6 111.681 14.104 111.681 13.56V6.488ZM118.87 8.872C119.275 8.75467 119.798 8.648 120.438 8.552C121.078 8.44533 121.75 8.392 122.454 8.392C123.169 8.392 123.761 8.488 124.23 8.68C124.71 8.86133 125.089 9.12267 125.366 9.464C125.643 9.80533 125.841 10.2107 125.958 10.68C126.075 11.1493 126.134 11.672 126.134 12.248V17H123.75V12.536C123.75 11.768 123.649 11.224 123.446 10.904C123.243 10.584 122.865 10.424 122.31 10.424C122.139 10.424 121.958 10.4347 121.766 10.456C121.574 10.4667 121.403 10.4827 121.254 10.504V17H118.87V8.872ZM127.892 12.856C127.892 12.1093 128.004 11.4587 128.228 10.904C128.463 10.3387 128.767 9.86933 129.14 9.496C129.513 9.12267 129.94 8.84 130.42 8.648C130.911 8.456 131.412 8.36 131.924 8.36C133.119 8.36 134.063 8.728 134.756 9.464C135.449 10.1893 135.796 11.2613 135.796 12.68C135.796 12.8187 135.791 12.9733 135.78 13.144C135.769 13.304 135.759 13.448 135.748 13.576H130.34C130.393 14.0667 130.623 14.456 131.028 14.744C131.433 15.032 131.977 15.176 132.66 15.176C133.097 15.176 133.524 15.1387 133.94 15.064C134.367 14.9787 134.713 14.8773 134.98 14.76L135.3 16.696C135.172 16.76 135.001 16.824 134.788 16.888C134.575 16.952 134.335 17.0053 134.068 17.048C133.812 17.1013 133.535 17.144 133.236 17.176C132.937 17.208 132.639 17.224 132.34 17.224C131.583 17.224 130.921 17.112 130.356 16.888C129.801 16.664 129.337 16.36 128.964 15.976C128.601 15.5813 128.329 15.1173 128.148 14.584C127.977 14.0507 127.892 13.4747 127.892 12.856ZM133.492 11.944C133.481 11.7413 133.444 11.544 133.38 11.352C133.327 11.16 133.236 10.9893 133.108 10.84C132.991 10.6907 132.836 10.568 132.644 10.472C132.463 10.376 132.233 10.328 131.956 10.328C131.689 10.328 131.46 10.376 131.268 10.472C131.076 10.5573 130.916 10.6747 130.788 10.824C130.66 10.9733 130.559 11.1493 130.484 11.352C130.42 11.544 130.372 11.7413 130.34 11.944H133.492ZM140.052 15.288C140.489 15.288 140.798 15.2453 140.98 15.16C141.161 15.0747 141.252 14.9093 141.252 14.664C141.252 14.472 141.134 14.3067 140.9 14.168C140.665 14.0187 140.308 13.8533 139.828 13.672C139.454 13.5333 139.113 13.3893 138.804 13.24C138.505 13.0907 138.249 12.9147 138.036 12.712C137.822 12.4987 137.657 12.248 137.54 11.96C137.422 11.672 137.364 11.3253 137.364 10.92C137.364 10.1307 137.657 9.50667 138.244 9.048C138.83 8.58933 139.636 8.36 140.66 8.36C141.172 8.36 141.662 8.408 142.132 8.504C142.601 8.58933 142.974 8.68533 143.252 8.792L142.836 10.648C142.558 10.552 142.254 10.4667 141.924 10.392C141.604 10.3173 141.241 10.28 140.836 10.28C140.089 10.28 139.716 10.488 139.716 10.904C139.716 11 139.732 11.0853 139.764 11.16C139.796 11.2347 139.86 11.3093 139.956 11.384C140.052 11.448 140.18 11.5227 140.34 11.608C140.51 11.6827 140.724 11.768 140.98 11.864C141.502 12.056 141.934 12.248 142.276 12.44C142.617 12.6213 142.884 12.824 143.076 13.048C143.278 13.2613 143.417 13.5013 143.492 13.768C143.577 14.0347 143.62 14.344 143.62 14.696C143.62 15.528 143.305 16.1573 142.676 16.584C142.057 17.0107 141.177 17.224 140.036 17.224C139.289 17.224 138.665 17.16 138.164 17.032C137.673 16.904 137.332 16.7973 137.14 16.712L137.54 14.776C137.945 14.936 138.361 15.064 138.788 15.16C139.214 15.2453 139.636 15.288 140.052 15.288ZM147.817 15.288C148.255 15.288 148.564 15.2453 148.745 15.16C148.927 15.0747 149.017 14.9093 149.017 14.664C149.017 14.472 148.9 14.3067 148.665 14.168C148.431 14.0187 148.073 13.8533 147.593 13.672C147.22 13.5333 146.879 13.3893 146.569 13.24C146.271 13.0907 146.015 12.9147 145.801 12.712C145.588 12.4987 145.423 12.248 145.305 11.96C145.188 11.672 145.129 11.3253 145.129 10.92C145.129 10.1307 145.423 9.50667 146.009 9.048C146.596 8.58933 147.401 8.36 148.425 8.36C148.937 8.36 149.428 8.408 149.897 8.504C150.367 8.58933 150.74 8.68533 151.017 8.792L150.601 10.648C150.324 10.552 150.02 10.4667 149.689 10.392C149.369 10.3173 149.007 10.28 148.601 10.28C147.855 10.28 147.481 10.488 147.481 10.904C147.481 11 147.497 11.0853 147.529 11.16C147.561 11.2347 147.625 11.3093 147.721 11.384C147.817 11.448 147.945 11.5227 148.105 11.608C148.276 11.6827 148.489 11.768 148.745 11.864C149.268 12.056 149.7 12.248 150.041 12.44C150.383 12.6213 150.649 12.824 150.841 13.048C151.044 13.2613 151.183 13.5013 151.257 13.768C151.343 14.0347 151.385 14.344 151.385 14.696C151.385 15.528 151.071 16.1573 150.441 16.584C149.823 17.0107 148.943 17.224 147.801 17.224C147.055 17.224 146.431 17.16 145.929 17.032C145.439 16.904 145.097 16.7973 144.905 16.712L145.305 14.776C145.711 14.936 146.127 15.064 146.553 15.16C146.98 15.2453 147.401 15.288 147.817 15.288Z" fill="#5F0922"></path> <path d="M64.9164 28.642C64.9164 29.014 64.8624 29.353 64.7544 29.659C64.6464 29.965 64.4934 30.226 64.2954 30.442C64.0974 30.658 63.8574 30.826 63.5754 30.946C63.2994 31.066 62.9934 31.126 62.6574 31.126C62.3214 31.126 62.0154 31.066 61.7394 30.946C61.4634 30.826 61.2264 30.658 61.0284 30.442C60.8304 30.226 60.6744 29.965 60.5604 29.659C60.4524 29.353 60.3984 29.014 60.3984 28.642C60.3984 28.27 60.4524 27.934 60.5604 27.634C60.6744 27.328 60.8304 27.067 61.0284 26.851C61.2324 26.635 61.4724 26.47 61.7484 26.356C62.0244 26.236 62.3274 26.176 62.6574 26.176C62.9874 26.176 63.2904 26.236 63.5664 26.356C63.8484 26.47 64.0884 26.635 64.2864 26.851C64.4844 27.067 64.6374 27.328 64.7454 27.634C64.8594 27.934 64.9164 28.27 64.9164 28.642ZM63.8004 28.642C63.8004 28.174 63.6984 27.805 63.4944 27.535C63.2964 27.259 63.0174 27.121 62.6574 27.121C62.2974 27.121 62.0154 27.259 61.8114 27.535C61.6134 27.805 61.5144 28.174 61.5144 28.642C61.5144 29.116 61.6134 29.491 61.8114 29.767C62.0154 30.043 62.2974 30.181 62.6574 30.181C63.0174 30.181 63.2964 30.043 63.4944 29.767C63.6984 29.491 63.8004 29.116 63.8004 28.642ZM70.0843 27.202H68.5633V31H67.4743V27.202H65.9623V26.293H70.0843V27.202ZM75.8163 24.7C76.7223 24.7 77.4153 24.865 77.8953 25.195C78.3813 25.525 78.6243 26.041 78.6243 26.743C78.6243 27.109 78.5583 27.424 78.4263 27.688C78.3003 27.946 78.1143 28.159 77.8683 28.327C77.6223 28.489 77.3223 28.609 76.9683 28.687C76.6143 28.765 76.2093 28.804 75.7533 28.804H75.1863V31H74.0523V24.853C74.3163 24.793 74.6073 24.754 74.9253 24.736C75.2493 24.712 75.5463 24.7 75.8163 24.7ZM75.8973 25.681C75.6093 25.681 75.3723 25.69 75.1863 25.708V27.832H75.7353C76.2813 27.832 76.7013 27.757 76.9953 27.607C77.2893 27.451 77.4363 27.16 77.4363 26.734C77.4363 26.53 77.3973 26.359 77.3193 26.221C77.2413 26.083 77.1333 25.975 76.9953 25.897C76.8573 25.819 76.6923 25.765 76.5003 25.735C76.3143 25.699 76.1133 25.681 75.8973 25.681ZM81.6123 30.235C81.9483 30.235 82.2033 30.217 82.3773 30.181V28.975C82.3173 28.957 82.2303 28.939 82.1163 28.921C82.0023 28.903 81.8763 28.894 81.7383 28.894C81.6183 28.894 81.4953 28.903 81.3693 28.921C81.2493 28.939 81.1383 28.972 81.0363 29.02C80.9403 29.068 80.8623 29.137 80.8023 29.227C80.7423 29.311 80.7123 29.419 80.7123 29.551C80.7123 29.809 80.7933 29.989 80.9553 30.091C81.1173 30.187 81.3363 30.235 81.6123 30.235ZM81.5223 26.176C81.8823 26.176 82.1853 26.221 82.4313 26.311C82.6773 26.401 82.8723 26.527 83.0163 26.689C83.1663 26.851 83.2713 27.049 83.3313 27.283C83.3973 27.511 83.4303 27.763 83.4303 28.039V30.892C83.2623 30.928 83.0073 30.97 82.6653 31.018C82.3293 31.072 81.9483 31.099 81.5223 31.099C81.2403 31.099 80.9823 31.072 80.7483 31.018C80.5143 30.964 80.3133 30.877 80.1453 30.757C79.9833 30.637 79.8543 30.481 79.7583 30.289C79.6683 30.097 79.6233 29.86 79.6233 29.578C79.6233 29.308 79.6743 29.08 79.7763 28.894C79.8843 28.708 80.0283 28.558 80.2083 28.444C80.3883 28.324 80.5953 28.24 80.8293 28.192C81.0693 28.138 81.3183 28.111 81.5763 28.111C81.6963 28.111 81.8223 28.12 81.9543 28.138C82.0863 28.15 82.2273 28.174 82.3773 28.21V28.03C82.3773 27.904 82.3623 27.784 82.3323 27.67C82.3023 27.556 82.2483 27.457 82.1703 27.373C82.0983 27.283 81.9993 27.214 81.8733 27.166C81.7533 27.118 81.6003 27.094 81.4143 27.094C81.1623 27.094 80.9313 27.112 80.7213 27.148C80.5113 27.184 80.3403 27.226 80.2083 27.274L80.0733 26.392C80.2113 26.344 80.4123 26.296 80.6763 26.248C80.9403 26.2 81.2223 26.176 81.5223 26.176ZM85.0029 28.651C85.0029 28.303 85.0569 27.979 85.1649 27.679C85.2729 27.373 85.4259 27.109 85.6239 26.887C85.8279 26.665 86.0739 26.491 86.3619 26.365C86.6499 26.239 86.9739 26.176 87.3339 26.176C87.7779 26.176 88.1979 26.257 88.5939 26.419L88.3599 27.31C88.2339 27.256 88.0899 27.211 87.9279 27.175C87.7719 27.139 87.6039 27.121 87.4239 27.121C86.9979 27.121 86.6739 27.256 86.4519 27.526C86.2299 27.79 86.1189 28.165 86.1189 28.651C86.1189 29.119 86.2239 29.491 86.4339 29.767C86.6439 30.037 86.9979 30.172 87.4959 30.172C87.6819 30.172 87.8649 30.154 88.0449 30.118C88.2249 30.082 88.3809 30.037 88.5129 29.983L88.6659 30.883C88.5459 30.943 88.3629 30.997 88.1169 31.045C87.8769 31.093 87.6279 31.117 87.3699 31.117C86.9679 31.117 86.6169 31.057 86.3169 30.937C86.0229 30.811 85.7769 30.64 85.5789 30.424C85.3869 30.202 85.2429 29.941 85.1469 29.641C85.0509 29.335 85.0029 29.005 85.0029 28.651ZM93.9311 26.293C93.4451 28.081 92.8811 29.701 92.2391 31.153C92.1191 31.423 91.9961 31.654 91.8701 31.846C91.7441 32.038 91.6031 32.197 91.4471 32.323C91.2911 32.449 91.1171 32.539 90.9251 32.593C90.7331 32.653 90.5111 32.683 90.2591 32.683C90.0911 32.683 89.9231 32.665 89.7551 32.629C89.5931 32.593 89.4701 32.554 89.3861 32.512L89.5841 31.639C89.8001 31.723 90.0131 31.765 90.2231 31.765C90.5051 31.765 90.7241 31.696 90.8801 31.558C91.0421 31.426 91.1831 31.219 91.3031 30.937C90.9611 30.277 90.6311 29.557 90.3131 28.777C90.0011 27.997 89.7221 27.169 89.4761 26.293H90.6371C90.6971 26.545 90.7691 26.818 90.8531 27.112C90.9431 27.406 91.0391 27.706 91.1411 28.012C91.2431 28.312 91.3511 28.612 91.4651 28.912C91.5791 29.212 91.6931 29.491 91.8071 29.749C91.9991 29.215 92.1791 28.648 92.3471 28.048C92.5151 27.442 92.6681 26.857 92.8061 26.293H93.9311ZM96.8716 27.193C96.8656 27.457 96.8566 27.733 96.8446 28.021C96.8326 28.303 96.8026 28.582 96.7546 28.858C96.7126 29.134 96.6436 29.398 96.5476 29.65C96.4516 29.902 96.3166 30.13 96.1426 30.334C95.9746 30.532 95.7616 30.7 95.5036 30.838C95.2516 30.97 94.9426 31.054 94.5766 31.09L94.4236 30.181C94.7296 30.121 94.9666 30.025 95.1346 29.893C95.3026 29.755 95.4316 29.581 95.5216 29.371C95.5936 29.215 95.6476 29.038 95.6836 28.84C95.7256 28.642 95.7556 28.435 95.7736 28.219C95.7976 27.997 95.8126 27.772 95.8186 27.544C95.8246 27.316 95.8276 27.094 95.8276 26.878V26.293H99.1576V31H98.0686V27.193H96.8716ZM102.703 30.235C103.039 30.235 103.294 30.217 103.468 30.181V28.975C103.408 28.957 103.321 28.939 103.207 28.921C103.093 28.903 102.967 28.894 102.829 28.894C102.709 28.894 102.586 28.903 102.46 28.921C102.34 28.939 102.229 28.972 102.127 29.02C102.031 29.068 101.953 29.137 101.893 29.227C101.833 29.311 101.803 29.419 101.803 29.551C101.803 29.809 101.884 29.989 102.046 30.091C102.208 30.187 102.427 30.235 102.703 30.235ZM102.613 26.176C102.973 26.176 103.276 26.221 103.522 26.311C103.768 26.401 103.963 26.527 104.107 26.689C104.257 26.851 104.362 27.049 104.422 27.283C104.488 27.511 104.521 27.763 104.521 28.039V30.892C104.353 30.928 104.098 30.97 103.756 31.018C103.42 31.072 103.039 31.099 102.613 31.099C102.331 31.099 102.073 31.072 101.839 31.018C101.605 30.964 101.404 30.877 101.236 30.757C101.074 30.637 100.945 30.481 100.849 30.289C100.759 30.097 100.714 29.86 100.714 29.578C100.714 29.308 100.765 29.08 100.867 28.894C100.975 28.708 101.119 28.558 101.299 28.444C101.479 28.324 101.686 28.24 101.92 28.192C102.16 28.138 102.409 28.111 102.667 28.111C102.787 28.111 102.913 28.12 103.045 28.138C103.177 28.15 103.318 28.174 103.468 28.21V28.03C103.468 27.904 103.453 27.784 103.423 27.67C103.393 27.556 103.339 27.457 103.261 27.373C103.189 27.283 103.09 27.214 102.964 27.166C102.844 27.118 102.691 27.094 102.505 27.094C102.253 27.094 102.022 27.112 101.812 27.148C101.602 27.184 101.431 27.226 101.299 27.274L101.164 26.392C101.302 26.344 101.503 26.296 101.767 26.248C102.031 26.2 102.313 26.176 102.613 26.176ZM110.116 25.726V27.04H110.728C111.178 27.04 111.58 27.076 111.934 27.148C112.288 27.22 112.588 27.337 112.834 27.499C113.08 27.655 113.266 27.862 113.392 28.12C113.524 28.372 113.59 28.681 113.59 29.047C113.59 29.725 113.344 30.232 112.852 30.568C112.366 30.898 111.67 31.063 110.764 31.063C110.512 31.063 110.227 31.048 109.909 31.018C109.591 30.994 109.291 30.949 109.009 30.883V24.763H113.005V25.726H110.116ZM110.512 30.082C110.578 30.082 110.653 30.082 110.737 30.082C110.821 30.082 110.914 30.079 111.016 30.073C111.202 30.067 111.379 30.046 111.547 30.01C111.721 29.974 111.871 29.917 111.997 29.839C112.129 29.761 112.231 29.659 112.303 29.533C112.381 29.407 112.42 29.248 112.42 29.056C112.42 28.84 112.381 28.663 112.303 28.525C112.225 28.387 112.111 28.279 111.961 28.201C111.811 28.117 111.628 28.06 111.412 28.03C111.202 27.994 110.962 27.976 110.692 27.976H110.116V30.064C110.17 30.07 110.227 30.076 110.287 30.082C110.353 30.082 110.428 30.082 110.512 30.082ZM119.372 28.642C119.372 29.014 119.318 29.353 119.21 29.659C119.102 29.965 118.949 30.226 118.751 30.442C118.553 30.658 118.313 30.826 118.031 30.946C117.755 31.066 117.449 31.126 117.113 31.126C116.777 31.126 116.471 31.066 116.195 30.946C115.919 30.826 115.682 30.658 115.484 30.442C115.286 30.226 115.13 29.965 115.016 29.659C114.908 29.353 114.854 29.014 114.854 28.642C114.854 28.27 114.908 27.934 115.016 27.634C115.13 27.328 115.286 27.067 115.484 26.851C115.688 26.635 115.928 26.47 116.204 26.356C116.48 26.236 116.783 26.176 117.113 26.176C117.443 26.176 117.746 26.236 118.022 26.356C118.304 26.47 118.544 26.635 118.742 26.851C118.94 27.067 119.093 27.328 119.201 27.634C119.315 27.934 119.372 28.27 119.372 28.642ZM118.256 28.642C118.256 28.174 118.154 27.805 117.95 27.535C117.752 27.259 117.473 27.121 117.113 27.121C116.753 27.121 116.471 27.259 116.267 27.535C116.069 27.805 115.97 28.174 115.97 28.642C115.97 29.116 116.069 29.491 116.267 29.767C116.471 30.043 116.753 30.181 117.113 30.181C117.473 30.181 117.752 30.043 117.95 29.767C118.154 29.491 118.256 29.116 118.256 28.642ZM122.083 28.183C122.221 28.045 122.371 27.892 122.533 27.724C122.695 27.55 122.854 27.376 123.01 27.202C123.172 27.028 123.325 26.863 123.469 26.707C123.613 26.545 123.733 26.407 123.829 26.293H125.107C124.975 26.449 124.822 26.62 124.648 26.806C124.48 26.992 124.303 27.184 124.117 27.382C123.937 27.574 123.757 27.763 123.577 27.949C123.403 28.129 123.244 28.291 123.1 28.435C123.286 28.591 123.478 28.774 123.676 28.984C123.88 29.188 124.078 29.407 124.27 29.641C124.468 29.869 124.651 30.103 124.819 30.343C124.987 30.577 125.128 30.796 125.242 31H123.982C123.868 30.82 123.733 30.631 123.577 30.433C123.427 30.235 123.268 30.043 123.1 29.857C122.932 29.665 122.761 29.485 122.587 29.317C122.413 29.149 122.245 29.005 122.083 28.885V31H120.994V26.293H122.083V28.183ZM130.652 26.293V31H129.572C129.572 30.658 129.572 30.319 129.572 29.983C129.578 29.647 129.581 29.335 129.581 29.047C129.587 28.759 129.59 28.51 129.59 28.3C129.596 28.084 129.599 27.925 129.599 27.823C129.419 28.057 129.233 28.315 129.041 28.597C128.849 28.879 128.657 29.161 128.465 29.443C128.279 29.725 128.102 30.001 127.934 30.271C127.766 30.541 127.619 30.784 127.493 31H126.53V26.293H127.601C127.601 26.641 127.598 26.974 127.592 27.292C127.592 27.604 127.592 27.889 127.592 28.147C127.592 28.405 127.589 28.63 127.583 28.822C127.583 29.014 127.583 29.161 127.583 29.263C127.751 29.005 127.925 28.741 128.105 28.471C128.285 28.195 128.465 27.928 128.645 27.67C128.831 27.406 129.014 27.157 129.194 26.923C129.374 26.689 129.548 26.479 129.716 26.293H130.652ZM132.28 28.669C132.28 28.255 132.34 27.892 132.46 27.58C132.586 27.268 132.751 27.01 132.955 26.806C133.159 26.596 133.393 26.44 133.657 26.338C133.921 26.23 134.191 26.176 134.467 26.176C135.115 26.176 135.619 26.377 135.979 26.779C136.345 27.181 136.528 27.781 136.528 28.579C136.528 28.639 136.525 28.708 136.519 28.786C136.519 28.858 136.516 28.924 136.51 28.984H133.405C133.435 29.362 133.567 29.656 133.801 29.866C134.041 30.07 134.386 30.172 134.836 30.172C135.1 30.172 135.34 30.148 135.556 30.1C135.778 30.052 135.952 30.001 136.078 29.947L136.222 30.838C136.162 30.868 136.078 30.901 135.97 30.937C135.868 30.967 135.748 30.994 135.61 31.018C135.478 31.048 135.334 31.072 135.178 31.09C135.022 31.108 134.863 31.117 134.701 31.117C134.287 31.117 133.927 31.057 133.621 30.937C133.315 30.811 133.063 30.64 132.865 30.424C132.667 30.202 132.52 29.944 132.424 29.65C132.328 29.35 132.28 29.023 132.28 28.669ZM135.439 28.183C135.439 28.033 135.418 27.892 135.376 27.76C135.334 27.622 135.271 27.505 135.187 27.409C135.109 27.307 135.01 27.229 134.89 27.175C134.776 27.115 134.638 27.085 134.476 27.085C134.308 27.085 134.161 27.118 134.035 27.184C133.909 27.244 133.801 27.325 133.711 27.427C133.627 27.529 133.561 27.646 133.513 27.778C133.465 27.91 133.432 28.045 133.414 28.183H135.439ZM140.054 31.09C139.88 31.09 139.703 31.084 139.523 31.072C139.343 31.06 139.169 31.045 139.001 31.027C138.839 31.009 138.686 30.991 138.542 30.973C138.398 30.949 138.278 30.925 138.182 30.901V26.356C138.278 26.332 138.398 26.311 138.542 26.293C138.686 26.269 138.839 26.251 139.001 26.239C139.169 26.221 139.343 26.209 139.523 26.203C139.703 26.191 139.88 26.185 140.054 26.185C140.69 26.185 141.185 26.302 141.539 26.536C141.893 26.764 142.07 27.085 142.07 27.499C142.07 27.715 142.016 27.907 141.908 28.075C141.8 28.243 141.659 28.369 141.485 28.453C141.701 28.537 141.887 28.669 142.043 28.849C142.199 29.029 142.277 29.284 142.277 29.614C142.277 30.088 142.091 30.454 141.719 30.712C141.347 30.964 140.792 31.09 140.054 31.09ZM140.081 28.183C140.351 28.183 140.573 28.144 140.747 28.066C140.927 27.988 141.017 27.832 141.017 27.598C141.017 27.484 140.987 27.391 140.927 27.319C140.873 27.247 140.798 27.19 140.702 27.148C140.606 27.106 140.495 27.079 140.369 27.067C140.243 27.049 140.111 27.04 139.973 27.04C139.865 27.04 139.739 27.043 139.595 27.049C139.457 27.055 139.346 27.064 139.262 27.076V28.183H140.081ZM139.262 30.19C139.334 30.202 139.451 30.214 139.613 30.226C139.781 30.232 139.937 30.235 140.081 30.235C140.405 30.235 140.672 30.19 140.882 30.1C141.098 30.01 141.206 29.839 141.206 29.587C141.206 29.341 141.107 29.173 140.909 29.083C140.717 28.987 140.465 28.939 140.153 28.939H139.262V30.19ZM145.462 30.235C145.798 30.235 146.053 30.217 146.227 30.181V28.975C146.167 28.957 146.08 28.939 145.966 28.921C145.852 28.903 145.726 28.894 145.588 28.894C145.468 28.894 145.345 28.903 145.219 28.921C145.099 28.939 144.988 28.972 144.886 29.02C144.79 29.068 144.712 29.137 144.652 29.227C144.592 29.311 144.562 29.419 144.562 29.551C144.562 29.809 144.643 29.989 144.805 30.091C144.967 30.187 145.186 30.235 145.462 30.235ZM145.372 26.176C145.732 26.176 146.035 26.221 146.281 26.311C146.527 26.401 146.722 26.527 146.866 26.689C147.016 26.851 147.121 27.049 147.181 27.283C147.247 27.511 147.28 27.763 147.28 28.039V30.892C147.112 30.928 146.857 30.97 146.515 31.018C146.179 31.072 145.798 31.099 145.372 31.099C145.09 31.099 144.832 31.072 144.598 31.018C144.364 30.964 144.163 30.877 143.995 30.757C143.833 30.637 143.704 30.481 143.608 30.289C143.518 30.097 143.473 29.86 143.473 29.578C143.473 29.308 143.524 29.08 143.626 28.894C143.734 28.708 143.878 28.558 144.058 28.444C144.238 28.324 144.445 28.24 144.679 28.192C144.919 28.138 145.168 28.111 145.426 28.111C145.546 28.111 145.672 28.12 145.804 28.138C145.936 28.15 146.077 28.174 146.227 28.21V28.03C146.227 27.904 146.212 27.784 146.182 27.67C146.152 27.556 146.098 27.457 146.02 27.373C145.948 27.283 145.849 27.214 145.723 27.166C145.603 27.118 145.45 27.094 145.264 27.094C145.012 27.094 144.781 27.112 144.571 27.148C144.361 27.184 144.19 27.226 144.058 27.274L143.923 26.392C144.061 26.344 144.262 26.296 144.526 26.248C144.79 26.2 145.072 26.176 145.372 26.176Z" fill="#9F9999"></path> </svg> 